HIERARCHY
ROOT Hips
{
	OFFSET 0.000000 0.000000 0.000000
	CHANNELS 6 Xposition Yposition Zposition Zrotation Yrotation Xrotation 
	JOINT LowerBack
	{
		OFFSET 0.000000 0.000000 0.000000
		CHANNELS 3 Zrotation Yrotation Xrotation
		JOINT Spine
		{
			OFFSET 0.028270 2.035590 -0.193380
			CHANNELS 3 Zrotation Yrotation Xrotation
			JOINT Spine1
			{
				OFFSET 0.056720 2.048850 -0.042750
				CHANNELS 3 Zrotation Yrotation Xrotation
				JOINT Neck
				{
					OFFSET 0.000000 0.000000 0.000000
					CHANNELS 3 Zrotation Yrotation Xrotation
					JOINT Neck1
					{
						OFFSET -0.054170 1.746240 0.172020
						CHANNELS 3 Zrotation Yrotation Xrotation
						JOINT Head
						{
							OFFSET 0.104070 1.761360 -0.123970
							CHANNELS 3 Zrotation Yrotation Xrotation
							End Site
							{
								OFFSET 0.000000 0.000000 0.000000
							}
						}
					}
				}
				JOINT LeftShoulder
				{
					OFFSET 0.000000 0.000000 0.000000
					CHANNELS 3 Zrotation Yrotation Xrotation
					JOINT LeftArm
					{
						OFFSET 3.362410 1.200890 -0.311210
						CHANNELS 3 Zrotation Yrotation Xrotation
						JOINT LeftForeArm
						{
							OFFSET 4.983000 -0.000000 -0.000000
							CHANNELS 3 Zrotation Yrotation Xrotation
							JOINT LeftHand
							{
								OFFSET 3.483560 -0.000000 -0.000000
								CHANNELS 3 Zrotation Yrotation Xrotation
								JOINT LeftFingerBase
								{
									OFFSET 0.000000 0.000000 0.000000
									CHANNELS 3 Zrotation Yrotation Xrotation
									JOINT LeftHandIndex1
									{
										OFFSET 0.715260 -0.000000 -0.000000
										CHANNELS 3 Zrotation Yrotation Xrotation
										End Site
										{
											OFFSET 0.000000 0.000000 0.000000
										}
									}
								}
								JOINT LThumb
								{
									OFFSET 0.000000 0.000000 0.000000
									CHANNELS 3 Zrotation Yrotation Xrotation
									End Site
									{
										OFFSET 0.000000 0.000000 0.000000
									}
								}
							}
						}
					}
				}
				JOINT RightShoulder
				{
					OFFSET 0.000000 0.000000 0.000000
					CHANNELS 3 Zrotation Yrotation Xrotation
					JOINT RightArm
					{
						OFFSET -3.136600 1.374050 -0.404650
						CHANNELS 3 Zrotation Yrotation Xrotation
						JOINT RightForeArm
						{
							OFFSET -5.241900 -0.000000 -0.000000
							CHANNELS 3 Zrotation Yrotation Xrotation
							JOINT RightHand
							{
								OFFSET -3.444170 -0.000000 -0.000000
								CHANNELS 3 Zrotation Yrotation Xrotation
								JOINT RightFingerBase
								{
									OFFSET 0.000000 0.000000 0.000000
									CHANNELS 3 Zrotation Yrotation Xrotation
									JOINT RightHandIndex1
									{
										OFFSET -0.622530 -0.000000 -0.000000
										CHANNELS 3 Zrotation Yrotation Xrotation
										End Site
										{
											OFFSET 0.000000 0.000000 0.000000
										}
									}
								}
								JOINT RThumb
								{
									OFFSET 0.000000 0.000000 0.000000
									CHANNELS 3 Zrotation Yrotation Xrotation
									End Site
									{
										OFFSET 0.000000 0.000000 0.000000
									}
								}
							}
						}
					}
				}
			}
		}
	}
}
}
MOTION
Frames: 7
Frame Time: 0.008333
-2.712404 17.325352 -1.187399 170.440213 -78.150043 -158.527149 6.145408 0.162220 4.514239 0.287391 -0.053057 -2.624662 -6.572850 -0.197516 -1.934527 8.926238 4.259719 1.312949 -4.637120 -0.401559 2.217527 0.000000 0.000000 0.000000 -3.321729 -6.575543 2.279404 -67.988352 -5.142183 15.581961 -2.735233 -29.590368 0.001982 3.615258 -4.312189 -0.140857 -0.075136 0.078697 0.000000 0.000000 0.000000 0.000000 0.000000 0.000000 0.000000 18.743803 4.774080 1.419015 69.531865 16.089014 1.932051 3.232858 16.871229 0.010448 -0.476355 10.807501 -0.050508 0.056572 -0.138251 0.000000 0.000000 0.000000 0.000000 0.000000 0.000000 0.000000 
-2.697077 17.327993 -1.205634 168.830828 -78.009129 -157.199388 6.080254 0.159533 4.635471 0.282474 -0.047294 -2.590687 -6.516644 -0.189122 -1.911019 8.886072 4.162814 1.250341 -4.628109 -0.400548 2.199076 0.000000 0.000000 0.000000 -3.364997 -6.453937 2.265085 -67.982269 -4.914680 15.358283 -2.734660 -29.582617 0.002119 3.529783 -4.280577 -0.136463 -0.074316 0.076501 0.000000 0.000000 0.000000 0.000000 0.000000 0.000000 0.000000 18.674376 4.692657 1.426499 69.286599 16.018187 1.791151 3.245311 16.779247 0.010519 -0.495297 10.734579 -0.052009 0.057530 -0.136975 0.000000 0.000000 0.000000 0.000000 0.000000 0.000000 0.000000 
-2.681148 17.330921 -1.222514 167.192506 -77.858644 -155.837143 6.007487 0.160974 4.765522 0.275516 -0.036649 -2.555632 -6.461465 -0.176011 -1.888755 8.857014 4.070356 1.189577 -4.621126 -0.399633 2.180742 0.000000 0.000000 0.000000 -3.431206 -6.334140 2.252269 -67.968317 -4.705759 15.123248 -2.732625 -29.578167 0.002224 3.461061 -4.254631 -0.132969 -0.073441 0.074441 0.000000 0.000000 0.000000 0.000000 0.000000 0.000000 0.000000 18.627424 4.614550 1.437388 68.994284 15.932256 1.728623 3.257623 16.732253 0.010588 -0.504541 10.656003 -0.052610 0.058384 -0.135552 0.000000 0.000000 0.000000 0.000000 0.000000 0.000000 0.000000 
-2.664734 17.334156 -1.238196 165.525706 -77.695199 -154.438557 5.922809 0.166837 4.901338 0.265539 -0.020793 -2.520147 -6.407929 -0.157867 -1.867689 8.841882 3.982986 1.132182 -4.616530 -0.398859 2.162942 0.000000 0.000000 0.000000 -3.513508 -6.217894 2.240106 -67.950232 -4.511909 14.872246 -2.729080 -29.574924 0.002300 3.411886 -4.237776 -0.130575 -0.072518 0.072491 0.000000 0.000000 0.000000 0.000000 0.000000 0.000000 0.000000 18.607269 4.539669 1.451407 68.655975 15.832709 1.735414 3.269791 16.722658 0.010653 -0.506284 10.575866 -0.052412 0.059140 -0.133990 0.000000 0.000000 0.000000 0.000000 0.000000 0.000000 0.000000 
-2.647994 17.337764 -1.252912 163.836077 -77.515287 -153.004981 5.822891 0.177121 5.038866 0.251840 0.000208 -2.484908 -6.356392 -0.134751 -1.847141 8.842370 3.902579 1.079067 -4.614347 -0.398245 2.145942 0.000000 0.000000 0.000000 -3.605165 -6.102399 2.227832 -67.931273 -4.333204 14.608547 -2.724177 -29.569677 0.002354 3.385525 -4.232229 -0.129282 -0.071582 0.070634 0.000000 0.000000 0.000000 0.000000 0.000000 0.000000 0.000000 18.615531 4.469530 1.467787 68.275215 15.721001 1.796994 3.281775 16.741533 0.010714 -0.502520 10.498452 -0.051713 0.059801 -0.132303 0.000000 0.000000 0.000000 0.000000 0.000000 0.000000 0.000000 
-2.630943 17.341753 -1.266850 162.140382 -77.316977 -151.551373 5.707304 0.191832 5.174830 0.234341 0.026222 -2.450508 -6.306979 -0.106788 -1.826850 8.859066 3.830010 1.030998 -4.614369 -0.397795 2.129995 0.000000 0.000000 0.000000 -3.699087 -5.987144 2.214653 -67.915983 -4.167060 14.332724 -2.718019 -29.559814 0.002390 3.382159 -4.239713 -0.129289 -0.070648 0.068848 0.000000 0.000000 0.000000 0.000000 0.000000 0.000000 0.000000 18.651513 4.404995 1.485941 67.857702 15.599846 1.896044 3.293661 16.777519 0.010775 -0.495539 10.427836 -0.050815 0.060381 -0.130519 0.000000 0.000000 0.000000 0.000000 0.000000 0.000000 0.000000 
-2.613782 17.346132 -1.280224 160.450473 -77.098147 -150.085723 5.574382 0.210492 5.306276 0.212791 0.056697 -2.417419 -6.259581 -0.074525 -1.806273 8.891782 3.766362 0.988323 -4.616160 -0.397496 2.115238 0.000000 0.000000 0.000000 -3.788271 -5.870610 2.200078 -67.908418 -4.012147 14.047607 -2.711005 -29.542145 0.002415 3.399863 -4.260542 -0.130496 -0.069744 0.067118 0.000000 0.000000 0.000000 0.000000 0.000000 0.000000 0.000000 18.712898 4.347135 1.505165 67.411303 15.472205 2.013132 3.305402 16.819375 0.010834 -0.487525 10.366883 -0.049816 0.060895 -0.128672 0.000000 0.000000 0.000000 0.000000 0.000000 0.000000 0.000000 
